<?xml version="1.0" encoding="UTF-8"?><svg id="Camada_2" xmlns="http://www.w3.org/2000/svg" viewBox="0 0 22.58 31.3"><defs><style>.cls-1{fill:#e6007e;stroke-width:0px;}</style></defs><g id="Camada_2-2"><path class="cls-1" d="M17.56,20.68c.51.01.81.02.81.02.09,0,.17.07.17.16v5.2c0,.09-.08.17-.17.17h-1.86c-.1,0-.18.09-.16.19.26,1.56.53,3.12.8,4.68.03.17-.19.27-.3.13-1.54-1.96-3.07-3.92-4.61-5.88-1.25-.12-1.92-.18-3.18-.3-1.58,1.37-3.16,2.74-4.75,4.12-.11.1-.29,0-.27-.15l1.11-8.25C2.05,18.75,0,15.26,0,11.29,0,5.05,5.05,0,11.29,0s11.29,5.05,11.29,11.29c0,3.92-1.99,7.37-5.02,9.39Z"/></g></svg>