<?xml version="1.0" encoding="UTF-8"?><svg id="Camada_2" xmlns="http://www.w3.org/2000/svg" viewBox="0 0 133.28 44.27"><defs><style>.cls-1{fill:#e6007e;stroke-width:0px;}</style></defs><g id="Camada_2-2"><path class="cls-1" d="M61.01,36.4c.71,2.58-.16,5.27-2.16,6.74-1.46,1.07-3.49,1.48-5.39.79-1.97-.71-3.41-2.46-3.78-4.57h-28.86c-.14.5-.78,2.53-2.83,3.78-1.91,1.16-3.81.9-4.58.79-.98-.14-3.35-.47-4.72-2.54-1.69-2.57-.37-5.57-.27-5.8-.72-.46-1.88-1.15-3.37-1.89-2.89-1.43-3.91-1.47-4.58-2.56-1.06-1.72-.05-4.09.27-4.85,1.2-2.84,3.76-4.09,4.58-4.45,5.21-.36,10.43-.72,15.64-1.08,2.3-1.83,4.36-3.2,5.93-4.18,2.71-1.68,4.4-2.73,6.88-3.51,2.71-.85,5.13-.99,6.88-.94v-3.1c1.53-.57,3.74-1.27,6.47-1.75,2.39-.42,5.2-.67,9.98-.4,4.28.23,7.54.73,12.67,1.62,4.06.7,9.27,1.64,15.37,2.83,7.37-.18,14.74-.36,22.11-.54,1.89-3.6,3.78-7.19,5.66-10.79h20.36v2.83c-1.26,1.39-2.52,2.78-3.78,4.18v4.05h3.78v2.7h-2.43v1.9h1.49v15.35h-1.63c-.54-5.3-1.08-10.61-1.62-15.91h-1.62v16.31h-13.21c-2.16-3.19-4.31-6.38-6.47-9.57-2.78.71-7.13,1.9-12.4,3.64-7.58,2.5-10.77,4.08-16.99,6.2-3.96,1.35-9.86,3.16-17.39,4.72Z"/></g></svg>