<?xml version="1.0" encoding="UTF-8"?><svg id="Camada_2" xmlns="http://www.w3.org/2000/svg" viewBox="0 0 36.37 54.53"><defs><style>.cls-1{fill:#e71d73;stroke-width:0px;}</style></defs><g id="Camada_2-2"><path class="cls-1" d="M16.05,54.24c-.82.6-2.05.1-2.29,0-1.6-.65-2.47-2.47-2.16-2.83.2-.23.77.24,1.17-.04.41-.29.22-1.08.09-2.2-.27-2.32.15-2.24-.18-3.69-.24-1.05-.48-2.13-1.35-2.97-1.05-1.01-1.93-.63-3.1-1.48-.96-.7-1-1.42-1.89-3.37-1.14-2.5-2.49-5.48-4.99-7.82C.59,29.12.04,28.76,0,28.08c-.06-1.05,1.13-1.73,3.51-3.64,2.33-1.88,3.5-2.82,3.91-3.64,1.08-2.14-.22-3.24.54-6.07.25-.94,1.3-2.35,3.37-5.12,3.71-4.96,3.99-4.57,4.99-6.61.84-1.71,1.01-2.75,1.89-2.97,1.12-.27,2.33,1.06,3.78,2.7,2.02,2.28,3.27,4.54,4.04,6.2,1.19,2.53,1.79,3.83,2.02,5.8.32,2.79-.38,4.58.94,6.2.36.44.83.75,1.75,1.35,2.14,1.39,2.97,1.06,4.04,2.02,1.54,1.38,1.87,3.85,1.35,4.18-.34.22-.83-.58-2.56-1.35-1.05-.46-2.44-1.08-3.78-.54-.18.07-.87.37-1.35,1.08-.69,1.01-.16,1.7-.4,3.24-.29,1.77-1.17,1.95-2.02,4.85-.28.95-.31,1.36-.13,1.75.32.71,1.08.84,2.7,1.48,1.63.65,3.27,1.31,3.24,1.89-.03.51-1.39.81-2.02.94-3,.65-4.55-.39-5.8.54-.29.22-.59.56-1.08,2.29-.74,2.64-1.77,6.07-.94,6.47.48.23,1.15-.8,1.62-.54.53.29.51,2.06-.4,2.97-.4.39-1.3.53-3.1.81-1.13.17-1.34.14-1.48,0-.47-.46.26-1.57.54-3.1.25-1.4-.08-1.95-.4-4.18-.6-4.19-.03-6.5-.54-6.61-.41-.08-1.19,1.3-1.48,2.7-.4,1.89.38,2.42.4,5.66,0,1.01-.09,1.66-.27,2.97-.26,1.8-.48,2.19-.81,2.43Z"/></g></svg>